<svg xmlns="http://www.w3.org/2000/svg" viewBox="0 0 512 512" width="512" height="512">
    <defs>
        <filter id="soft" x="-10%" y="-10%" width="120%" height="120%">
            <feGaussianBlur in="SourceAlpha" stdDeviation="6" />
            <feOffset dx="0" dy="6" result="off" />
            <feComponentTransfer><feFuncA type="linear" slope="0.18" /></feComponentTransfer>
            <feMerge>
                <feMergeNode />
                <feMergeNode in="SourceGraphic" />
            </feMerge>
        </filter>
    </defs>
    <rect width="512" height="512" fill="#FFF4B8" />
    <g transform="rotate(-30 256 256)" filter="url(#soft)">
        <path d="M 446.25 266.00 C 444.02 324.85, 426.54 345.58, 384.69 394.69 C 342.83 443.80, 310.32 491.52, 256.00 489.22 C 201.68 486.91, 181.16 433.32, 137.78 384.22 C 94.41 335.11, 67.76 326.93, 58.85 266.00 C 49.94 205.07, 53.91 148.97, 97.28 107.28 C 140.66 65.59, 190.54 72.13, 256.00 76.51 C 321.46 80.89, 352.95 85.50, 394.81 127.19 C 436.66 168.88, 448.48 207.15, 446.25 266.00 Z" fill="#FFA000" />
    </g>
    <g>
        <circle cx="200" cy="240" r="22" fill="#FFFFFF" stroke="#2D2D2D" stroke-width="6" />
        <circle cx="312" cy="240" r="22" fill="#FFFFFF" stroke="#2D2D2D" stroke-width="6" />
        <circle cx="212" cy="244" r="10" fill="#2D2D2D" />
        <circle cx="324" cy="244" r="10" fill="#2D2D2D" />
        <path d="M 220 325 Q 256 340 292 315" stroke="#2D2D2D" stroke-width="10" fill="none" stroke-linecap="round" />
    </g>
</svg>