<svg xmlns="http://www.w3.org/2000/svg" viewBox="0 0 512 512" width="512" height="512">
    <defs>
        <filter id="soft" x="-10%" y="-10%" width="120%" height="120%">
            <feGaussianBlur in="SourceAlpha" stdDeviation="6" />
            <feOffset dx="0" dy="6" result="off" />
            <feComponentTransfer>
                <feFuncA type="linear" slope="0.18" />
            </feComponentTransfer>
            <feMerge>
                <feMergeNode />
                <feMergeNode in="SourceGraphic" />
            </feMerge>
        </filter>
    </defs>
    <rect width="512" height="512" fill="#E8D5FF" />
    <g transform="rotate(10 256 256)" filter="url(#soft)">
        <path
            d="M 481.75 266.00 C 481.53 320.61, 445.36 346.03, 403.40 389.68 C 361.43 433.33, 348.10 448.86, 290.99 464.42 C 233.87 479.97, 194.04 488.53, 143.78 460.37 C 93.53 432.21, 74.35 392.45, 62.56 336.41 C 50.76 280.37, 69.24 258.60, 90.16 205.64 C 111.08 152.67, 113.41 126.35, 157.65 95.65 C 201.89 64.96, 236.96 56.03, 291.25 66.11 C 345.54 76.19, 362.51 97.49, 404.42 141.46 C 446.33 185.44, 481.97 211.39, 481.75 266.00 Z"
            fill="#7B3FE4" />
    </g>
    <g>
        <path d="M 175 240 Q 200 235 225 240" stroke="#ffffff" stroke-width="10" fill="none" stroke-linecap="round" />
        <path d="M 287 240 Q 312 235 337 240" stroke="#ffffff" stroke-width="10" fill="none" stroke-linecap="round" />
        <circle cx="200" cy="245" r="12" fill="#ffffff" />
        <circle cx="312" cy="245" r="12" fill="#ffffff" />
        <ellipse cx="256" cy="325" rx="34" ry="6" fill="#ffffff" />
    </g>
</svg>
