<svg xmlns="http://www.w3.org/2000/svg" viewBox="0 0 512 512" width="512" height="512">
    <defs>
        <filter id="soft" x="-10%" y="-10%" width="120%" height="120%">
            <feGaussianBlur in="SourceAlpha" stdDeviation="6" />
            <feOffset dx="0" dy="6" result="off" />
            <feComponentTransfer><feFuncA type="linear" slope="0.18" /></feComponentTransfer>
            <feMerge>
                <feMergeNode />
                <feMergeNode in="SourceGraphic" />
            </feMerge>
        </filter>
    </defs>
    <rect width="512" height="512" fill="#CFE9F1" />
    <g transform="rotate(12 256 256)" filter="url(#soft)">
        <path d="M 432.07 266.00 C 427.95 316.67, 428.49 326.98, 405.15 374.36 C 381.81 421.75, 370.94 467.81, 325.98 481.37 C 281.01 494.93, 247.78 460.41, 200.76 436.01 C 153.74 411.61, 150.61 407.85, 112.23 370.45 C 73.85 333.05, 35.09 318.34, 26.30 266.00 C 17.52 213.66, 37.18 179.95, 72.31 132.54 C 107.44 85.13, 131.77 63.58, 185.98 50.49 C 240.18 37.39, 266.37 52.43, 318.71 73.01 C 371.05 93.59, 398.95 101.57, 423.89 144.02 C 448.83 186.48, 436.20 215.33, 432.07 266.00 Z" fill="#00ACC1" />
    </g>
    <g>
        <path d="M 200 240 m -16 0 a 16 16 0 1 0 32 0 a 12 12 0 1 0 -24 0 a 8 8 0 1 0 16 0 a 4 4 0 1 0 -8 0" stroke="#1A2D2D" stroke-width="4" fill="none" />
        <path d="M 312 240 m -16 0 a 16 16 0 1 0 32 0 a 12 12 0 1 0 -24 0 a 8 8 0 1 0 16 0 a 4 4 0 1 0 -8 0" stroke="#1A2D2D" stroke-width="4" fill="none" />
        <path d="M 215 325 Q 235 310 256 325 Q 277 340 297 325" stroke="#1A2D2D" stroke-width="9" fill="none" stroke-linecap="round" />
    </g>
</svg>