<svg xmlns="http://www.w3.org/2000/svg" viewBox="0 0 512 512" width="512" height="512">
    <defs>
        <filter id="soft" x="-10%" y="-10%" width="120%" height="120%">
            <feGaussianBlur in="SourceAlpha" stdDeviation="6" />
            <feOffset dx="0" dy="6" result="off" />
            <feComponentTransfer><feFuncA type="linear" slope="0.18" /></feComponentTransfer>
            <feMerge>
                <feMergeNode />
                <feMergeNode in="SourceGraphic" />
            </feMerge>
        </filter>
    </defs>
    <rect width="512" height="512" fill="#D4F5C9" />
    <g transform="rotate(40 256 256)" filter="url(#soft)">
        <path d="M 488.83 266.00 C 486.11 313.79, 438.34 332.58, 399.32 370.13 C 360.30 407.68, 355.74 420.35, 311.46 436.68 C 267.18 453.01, 244.86 456.75, 198.05 444.35 C 151.24 431.95, 131.40 419.54, 98.68 380.30 C 65.95 341.07, 48.14 315.47, 49.28 266.00 C 50.42 216.53, 71.68 196.39, 103.86 155.46 C 136.03 114.53, 148.23 98.29, 195.55 79.96 C 242.88 61.64, 271.43 56.12, 318.98 72.17 C 366.53 88.21, 374.31 110.25, 411.68 152.89 C 449.04 195.54, 491.54 218.21, 488.83 266.00 Z" fill="#4CAF50" />
    </g>
    <g>
        <path d="M 180 250 Q 200 220 220 250" stroke="#1A2A1A" stroke-width="12" fill="none" stroke-linecap="round" />
        <path d="M 292 250 Q 312 220 332 250" stroke="#1A2A1A" stroke-width="12" fill="none" stroke-linecap="round" />
        <path d="M 200 305 Q 256 360 312 305 Q 256 330 200 305 Z" fill="#1A2A1A" />
    </g>
</svg>