<svg width="185" height="278" viewBox="0 0 185 278" xmlns="http://www.w3.org/2000/svg">
    <rect class="silhouette-bg" width="185" height="278" />
    <path class="silhouette-fg" fill-rule="evenodd" clip-rule="evenodd"
        d="M67.9999 97C67.9999 90.6348 70.5285 84.5303 75.0294 80.0294C79.5303 75.5286 85.6347 73 91.9999 73C98.3651 73 104.47 75.5286 108.971 80.0294C113.471 84.5303 116 90.6348 116 97C116 103.365 113.471 109.47 108.971 113.971C104.47 118.471 98.3651 121 91.9999 121C85.6347 121 79.5303 118.471 75.0294 113.971C70.5285 109.47 67.9999 103.365 67.9999 97ZM48.0053 172.227C48.1851 160.677 52.8994 149.662 61.1304 141.558C69.3614 133.454 80.4491 128.912 91.9999 128.912C103.551 128.912 114.638 133.454 122.869 141.558C131.101 149.662 135.815 160.677 135.995 172.227C136.008 173.004 135.795 173.769 135.381 174.427C134.968 175.086 134.371 175.609 133.664 175.933C120.593 181.926 106.379 185.019 91.9999 185C77.1413 185 63.0239 181.757 50.3359 175.933C49.6292 175.609 49.0323 175.086 48.6184 174.427C48.2045 173.769 47.9914 173.004 48.0053 172.227Z" />
</svg>
