<svg width="24" height="24" viewBox="0 0 24 24" xmlns="http://www.w3.org/2000/svg">
    <path class="brand-fg"
        d="M17.2133 11.5689C17.2043 9.93022 17.954 8.69338 19.4716 7.7825C18.6225 6.58139 17.3397 5.92055 15.6461 5.79106C14.0428 5.66604 12.2904 6.71534 11.649 6.71534C10.9716 6.71534 9.4179 5.83571 8.19846 5.83571C5.67827 5.8759 3 7.82269 3 11.7832C3 12.9531 3.21679 14.1617 3.65037 15.4089C4.22848 17.0477 6.3151 21.0662 8.49203 20.9992C9.63018 20.9724 10.4341 20.1999 11.9155 20.1999C13.3518 20.1999 14.097 20.9992 15.3661 20.9992C17.5611 20.9679 19.449 17.3155 20 15.6723C17.0553 14.3015 17.2133 11.6537 17.2133 11.5689ZM14.657 4.23721C15.89 2.7905 15.7771 1.4733 15.7409 1C14.6525 1.06251 13.3924 1.73228 12.6743 2.55833C11.8839 3.44242 11.4187 4.53637 11.5181 5.76874C12.6969 5.85804 13.7718 5.25971 14.657 4.23721Z" />
</svg>
