<svg xmlns="http://www.w3.org/2000/svg" viewBox="0 0 640 640">
    <path
        d="M518.7 256.3C551 259.6 576.2 286.8 576.2 320L576.2 512L575.9 518.5C572.8 548.6 548.9 572.6 518.8 575.6L512.3 575.9L320.3 575.9L313.8 575.6C283.7 572.5 259.7 548.6 256.7 518.5L256.4 512L256.4 481.8L288.4 490.4L288.4 512.1C288.4 529.8 302.7 544.1 320.4 544.1L512.4 544.1C530.1 544.1 544.4 529.8 544.4 512.1L544.4 320.1C544.4 302.4 530.1 288.1 512.4 288.1L473.6 288.1L482.2 256.1L512.4 256.1L518.9 256.4zM119.5 110.2C131.6 78.4 164.6 59.3 198.2 64.8L205.4 66.3L394.9 117.1L401.9 119.4C436 132.4 455.4 169.3 445.8 205.3L395 394.8L392.8 401.8C380.7 433.6 347.7 452.7 314.1 447.2L306.9 445.7L117.3 394.9C81.3 385.2 59 349.9 64.9 313.9L66.4 306.7L117.2 117.2L119.4 110.2zM192.5 96.3C174.3 93.6 156.4 103.9 149.6 121.1L148 126.2L97.4 315C91.7 336.3 104.4 358.3 125.7 364L315.2 414.8L315.2 414.8C335.2 420.2 355.7 409.4 362.9 390.4L364.2 386.5L415 197L415.8 193.2C418.9 174.5 408.5 156.2 390.9 149.4L386 147.8L198.3 97.5L192.5 96.3zM316.1 365.8C304.6 372.4 289.9 368.5 283.3 357C276.7 345.5 280.6 330.8 292.1 324.2C303.6 317.6 318.3 321.5 324.9 333C331.5 344.5 327.6 359.2 316.1 365.8zM179.1 324.8C167.6 331.4 152.9 327.5 146.3 316C139.7 304.5 143.6 289.8 155.1 283.2C166.6 276.6 181.3 280.5 187.9 292C194.5 303.5 190.6 318.2 179.1 324.8zM268.1 276.8C260.7 281.6 251.2 281.9 243.4 277.6C235.7 273.3 230.9 265.1 231.1 256.3C231.2 247.4 236.2 239.3 244.1 235.3C251.5 230.5 261 230.2 268.8 234.5C276.5 238.8 281.3 247 281.1 255.8C281 264.7 276 272.8 268.1 276.8zM357.1 228.8C345.6 235.4 330.9 231.5 324.3 220C317.7 208.5 321.6 193.8 333.1 187.2C344.6 180.6 359.3 184.5 365.9 196C372.5 207.5 368.6 222.2 357.1 228.8zM220.1 187.8C208.6 194.4 193.9 190.5 187.3 179C180.7 167.5 184.6 152.8 196.1 146.2C207.6 139.6 222.3 143.5 228.9 155C235.5 166.5 231.6 181.2 220.1 187.8z" />
</svg>
