<svg xmlns="http://www.w3.org/2000/svg" viewBox="0 0 24 24">
    <path
        d="M7.7025 2.48625C6.2625 2.1 4.78125 2.955 4.39875 4.395L2.49375 11.5012C2.1075 12.9412 2.9625 14.4225 4.4025 14.8087L11.5088 16.7137C12.9488 17.1 14.43 16.245 14.8163 14.805L16.7213 7.69875C17.1075 6.25875 16.2525 4.7775 14.8125 4.39125L7.7025 2.48625ZM8.565 10.2C8.33625 9.82874 8.32875 9.36 8.5425 8.98125C8.75625 8.6025 9.16125 8.37 9.6 8.37375C10.035 8.3775 10.4325 8.6175 10.6425 9C10.8713 9.37124 10.8788 9.83999 10.665 10.2187C10.4513 10.5975 10.0463 10.83 9.6075 10.8262C9.1725 10.8225 8.775 10.5825 8.565 10.2ZM5.37 10.6612C5.74125 10.4325 6.21 10.425 6.58875 10.6387C6.9675 10.8525 7.2 11.2575 7.19625 11.6962C7.1925 12.1312 6.9525 12.5287 6.57 12.7387C6.19875 12.9675 5.73 12.975 5.35125 12.7612C4.9725 12.5475 4.74 12.1425 4.74375 11.7037C4.7475 11.2687 4.9875 10.8712 5.37 10.6612ZM12.3075 14.2762C11.9363 14.505 11.4675 14.5125 11.0888 14.2987C10.71 14.085 10.4775 13.68 10.4813 13.2412C10.485 12.8062 10.725 12.4087 11.1075 12.1987C11.4788 11.97 11.9475 11.9625 12.3263 12.1762C12.705 12.39 12.9375 12.795 12.9338 13.2337C12.93 13.6687 12.69 14.0662 12.3075 14.2762ZM12.645 6.46125C13.0163 6.2325 13.485 6.225 13.8638 6.43875C14.2425 6.6525 14.475 7.05749 14.4713 7.49624C14.4675 7.93124 14.2275 8.32874 13.845 8.53874C13.4738 8.76749 13.005 8.775 12.6263 8.56125C12.2475 8.3475 12.015 7.9425 12.0188 7.50375C12.0225 7.06875 12.2625 6.67125 12.645 6.46125ZM8.1075 7.00125C7.73625 7.23 7.2675 7.2375 6.88875 7.02375C6.51 6.81 6.2775 6.405 6.28125 5.96625C6.285 5.53125 6.525 5.13375 6.9075 4.92375C7.27875 4.695 7.7475 4.6875 8.12625 4.90125C8.505 5.115 8.7375 5.52 8.73375 5.95875C8.73 6.39375 8.49 6.79125 8.1075 7.00125ZM18.075 9.59999L16.5525 15.27C15.9075 17.67 13.44 19.095 11.04 18.4537L9.60375 18.0675V19.2C9.60375 20.5237 10.68 21.6 12.0038 21.6H19.2038C20.5275 21.6 21.6038 20.5237 21.6038 19.2V12C21.6038 10.6762 20.5275 9.59999 19.2038 9.59999H18.075Z" />
</svg>
