<svg width="24" height="24" viewBox="0 0 24 24" xmlns="http://www.w3.org/2000/svg">
    <path
        d="M12 3C7.02891 3 3 7.02891 3 12C3 16.971 7.02891 21 12 21C16.9711 21 21 16.971 21 12C21 7.02891 16.9711 3 12 3ZM5.83782 12H5.7995C5.48035 12 5.22293 11.7184 5.25247 11.3904C5.54391 8.13281 8.1504 5.53335 11.4129 5.2521C11.7293 5.22469 12 5.48731 12 5.81566C12 6.10922 11.7815 6.35285 11.4983 6.37781C8.79025 6.61758 6.62462 8.77617 6.38028 11.4867C6.35391 11.775 6.12083 12 5.83782 12ZM12 15.3434C10.136 15.3434 8.62501 13.8316 8.62501 12C8.62501 10.1684 10.136 8.625 12 8.625C13.864 8.625 15.375 10.1367 15.375 12C15.375 13.8633 13.8633 15.3434 12 15.3434ZM12 10.875C11.3778 10.875 10.875 11.3742 10.875 12C10.875 12.6258 11.3778 13.125 12 13.125C12.6223 13.125 13.125 12.624 13.125 12C13.125 11.376 12.6223 10.875 12 10.875Z"
        fill="#fff" />
</svg>
