<svg width="21" height="21" viewBox="0 0 21 21" fill="none" xmlns="http://www.w3.org/2000/svg" aria-hidden="true">
    <path class="brand-bg"
        d="M17.635 6.23583L16.1669 0.777771L0.774719 4.88638L2.24277 10.3464V10.3483C3.1625 10.535 3.94611 11.2233 4.20472 12.1878C4.46527 13.1542 4.13083 14.138 3.42889 14.7583V14.7603L4.89694 20.2203L20.2911 16.1136L18.8231 10.6555C17.8975 10.4708 17.11 9.78249 16.8494 8.81416C16.5889 7.84388 16.9253 6.8561 17.635 6.23583Z" />
    <path class="brand-fg"
        d="M11.8931 6.42637L7.31194 7.64943L8.23167 11.0736L12.8128 9.85054L13.7325 13.2747L9.15139 14.4978L10.0711 17.92L5.49 19.143L4.37583 15.0014C5.04472 14.1828 5.32472 13.0686 5.02917 11.97C4.73361 10.8733 3.9325 10.045 2.94278 9.66971L1.80722 5.45026L10.9694 3.00415L11.8931 6.42637Z" />
</svg>
