<svg width="24" height="24" viewBox="0 0 24 24" xmlns="http://www.w3.org/2000/svg">
    <path class="brand-bg"
        d="M19.2781 7.59331L17.7736 2L2 6.21042L3.50443 11.8057V11.8077C4.44695 11.999 5.24998 12.7044 5.515 13.6928C5.782 14.6831 5.43928 15.6913 4.71994 16.327V16.329L6.22437 21.9243L22 17.7159L20.4956 12.1225C19.5471 11.9332 18.7401 11.2279 18.473 10.2355C18.2061 9.24121 18.5508 8.22895 19.2781 7.59331Z" />
    <path class="brand-fg"
        d="M13.3939 7.78858L8.69917 9.04195L9.64169 12.551L14.3363 11.2976L15.2788 14.8066L10.5842 16.06L11.5267 19.567L6.83208 20.8203L5.69031 16.5761C6.37577 15.7372 6.66271 14.5954 6.35983 13.4696C6.05695 12.3457 5.23599 11.4969 4.22174 11.1123L3.05804 6.78828L12.4473 4.28156L13.3939 7.78858Z" />
</svg>
