<svg xmlns="http://www.w3.org/2000/svg" viewBox="0 0 640 640">
    <path
        d="M224 432L224 512L416 512L416 128L224 128L224 432zM192 448L128 448L128 480C128 497.7 142.3 512 160 512L192 512L192 448zM192 416L192 336L128 336L128 416L192 416zM192 304L192 224L128 224L128 304L192 304zM192 192L192 128L160 128C142.3 128 128 142.3 128 160L128 192L192 192zM448 416L512 416L512 336L448 336L448 416zM448 304L512 304L512 224L448 224L448 304zM448 192L512 192L512 160C512 142.3 497.7 128 480 128L448 128L448 192zM448 448L448 512L480 512C497.7 512 512 497.7 512 480L512 448L448 448zM160 96L480 96C515.3 96 544 124.7 544 160L544 480C544 515.3 515.3 544 480 544L160 544C124.7 544 96 515.3 96 480L96 160C96 124.7 124.7 96 160 96z" />
</svg>
