<svg xmlns="http://www.w3.org/2000/svg" viewBox="0 0 640 640">
    <path
        d="M64 480C64 471.2 71.2 464 80 464L145.6 464C153 427.5 185.3 400 224 400C262.7 400 295 427.5 302.4 464L560 464C568.8 464 576 471.2 576 480C576 488.8 568.8 496 560 496L302.4 496C295 532.5 262.7 560 224 560C185.3 560 153 532.5 145.6 496L80 496C71.2 496 64 488.8 64 480zM272 480C272 453.5 250.5 432 224 432C197.5 432 176 453.5 176 480C176 506.5 197.5 528 224 528C250.5 528 272 506.5 272 480zM464 320C464 293.5 442.5 272 416 272C389.5 272 368 293.5 368 320C368 346.5 389.5 368 416 368C442.5 368 464 346.5 464 320zM416 240C454.7 240 487 267.5 494.4 304L560 304C568.8 304 576 311.2 576 320C576 328.8 568.8 336 560 336L494.4 336C487 372.5 454.7 400 416 400C377.3 400 345 372.5 337.6 336L80 336C71.2 336 64 328.8 64 320C64 311.2 71.2 304 80 304L337.6 304C345 267.5 377.3 240 416 240zM256 112C229.5 112 208 133.5 208 160C208 186.5 229.5 208 256 208C282.5 208 304 186.5 304 160C304 133.5 282.5 112 256 112zM334.4 144L560 144C568.8 144 576 151.2 576 160C576 168.8 568.8 176 560 176L334.4 176C327 212.5 294.7 240 256 240C217.3 240 185 212.5 177.6 176L80 176C71.2 176 64 168.8 64 160C64 151.2 71.2 144 80 144L177.6 144C185 107.5 217.3 80 256 80C294.7 80 327 107.5 334.4 144z" />
</svg>
