<svg xmlns="http://www.w3.org/2000/svg" viewBox="0 0 640 640">
    <path
        d="M442.9 128C410.5 128 380 143.6 361 169.9L333 208.6C330 212.8 325.2 215.2 320 215.2C314.8 215.2 310 212.7 307 208.6L279 169.9L279 169.9C260 143.6 229.5 128 197.1 128C141.2 128 96 173.3 96 229.1C96 284.1 130.4 336.2 167.8 381.6C209.9 432.8 261.2 477.6 296.3 504.5C302.5 509.3 310.7 512 320 512C329.3 512 337.4 509.3 343.7 504.5C378.8 477.7 430.1 432.8 472.2 381.6C509.5 336.2 544 284.1 544 229.1C544 173.2 498.7 128 442.9 128zM335 151.1C360 116.5 400.2 96 442.9 96C516.4 96 576 155.6 576 229.1C576 296.5 534.4 356.4 496.9 401.9C452.8 455.5 399.6 502 363.1 529.8C350.7 539.2 335.5 543.9 320 543.9C304.5 543.9 289.2 539.3 276.9 529.8C240.4 502 187.2 455.5 143.1 402C105.6 356.4 64 296.5 64 229.1C64 155.6 123.6 96 197.1 96C239.8 96 280 116.5 305 151.1L320 171.8L335 151.1z" />
</svg>
