<svg width="24" height="24" viewBox="0 0 24 24" xmlns="http://www.w3.org/2000/svg">
    <path class="brand-bg"
        d="M18.5 2H5.5C3.567 2 2 3.567 2 5.5V18.5C2 20.433 3.567 22 5.5 22H18.5C20.433 22 22 20.433 22 18.5V5.5C22 3.567 20.433 2 18.5 2Z" />
    <path class="brand-fg"
        d="M18.5137 17.4598C18.6642 17.2646 18.7056 16.9973 18.7279 16.7567C18.7482 16.5084 18.7539 16.2591 18.7451 16.0102C18.7317 15.4911 18.6911 14.9727 18.6454 14.4559C18.6005 13.9504 18.5477 13.4461 18.4892 12.9418C18.4186 12.3168 18.3429 11.6918 18.2619 11.0668C18.1837 10.4602 18.0985 9.85591 17.9915 9.25161C17.9134 8.81177 17.8255 8.37271 17.7064 7.94224C17.6494 7.72317 17.5781 7.50811 17.4927 7.29849C17.4016 7.08481 17.2864 6.87231 17.1173 6.71021C16.8677 6.47115 16.4997 6.40396 16.1935 6.57154C15.8872 6.73911 15.6935 7.05435 15.5337 7.34654C15.2794 7.81138 15.0895 8.31138 14.9052 8.80669C14.849 8.95774 14.7936 9.10904 14.7392 9.2606C14.3985 8.60396 14.0361 7.94927 13.5822 7.36138C13.3009 6.99576 12.9693 6.62505 12.5458 6.42388C12.2362 6.27124 11.8767 6.25579 11.5552 6.3813C11.1353 6.54615 10.8021 6.89107 10.5232 7.23404C10.07 7.79107 9.7087 8.42231 9.37354 9.05513C9.32588 9.14524 9.27862 9.2356 9.23175 9.32623C9.08761 8.91803 8.94191 8.50981 8.78018 8.10826C8.66283 7.80385 8.52475 7.50784 8.36691 7.22231C8.16846 6.87545 7.87823 6.48014 7.43761 6.47584C6.73448 6.46685 6.47042 7.30318 6.31495 7.85045C6.13604 8.47974 6.02354 9.12818 5.92198 9.77349C5.78096 10.6719 5.67198 11.5747 5.56612 12.477C5.48175 13.1958 5.40323 13.9153 5.34268 14.6363C5.31104 15.0102 5.28369 15.3848 5.26729 15.7594C5.25088 16.134 5.24034 16.504 5.28877 16.8716C5.31144 17.045 5.34933 17.2231 5.43644 17.377C5.52515 17.5379 5.67965 17.652 5.85948 17.6896C6.29307 17.7837 6.60167 17.377 6.80049 17.0532C7.01534 16.704 7.19112 16.3286 7.36144 15.9567C7.54073 15.5688 7.713 15.1774 7.88096 14.7848C8.0712 14.3438 8.2591 13.9012 8.44815 13.4598C8.49542 13.3497 8.70402 12.8641 8.70402 12.8641C8.70402 12.8641 8.28956 11.6903 8.21261 11.4739C7.93917 12.0895 7.67315 12.7086 7.40869 13.3286C7.16338 13.9032 6.91925 14.4782 6.66652 15.0473C6.53761 15.3371 6.40675 15.6262 6.26846 15.9118C6.28487 15.4094 6.32472 14.9082 6.37042 14.4079C6.41807 13.8868 6.47394 13.3661 6.53369 12.8454C6.60818 12.1977 6.68799 11.5508 6.77315 10.9047C6.85127 10.3161 6.93838 9.72818 7.04659 9.14458C7.13487 8.67584 7.22941 8.20123 7.39815 7.75553C7.41261 7.71646 7.42823 7.67739 7.44464 7.64068C7.59854 7.89146 7.71456 8.16646 7.8255 8.43795C7.96417 8.77779 8.08995 9.12271 8.21338 9.46803C8.4837 10.2243 8.74034 10.9856 9.02276 11.7372C9.27627 12.411 9.54815 13.086 9.88214 13.7293C10.1345 14.2169 10.4247 14.7059 10.8196 15.0927C11.1134 15.3817 11.4798 15.6067 11.8989 15.6368C12.2896 15.6649 12.6571 15.5164 12.9579 15.2708C13.3485 14.9532 13.6322 14.5177 13.8763 14.084C14.2177 13.4774 14.4895 12.834 14.7431 12.1852C15.0356 11.4383 15.299 10.6786 15.5685 9.92193C15.6985 9.5563 15.8302 9.19107 15.9709 8.82818C16.0909 8.50736 16.2277 8.19311 16.381 7.88677C16.4276 7.79443 16.4792 7.70458 16.5353 7.61764C16.6251 7.82198 16.6971 8.0337 16.7505 8.25045C16.8106 8.47271 16.8614 8.69771 16.9067 8.92349C17.0209 9.48014 17.1083 10.0422 17.1872 10.6032C17.2797 11.2672 17.3606 11.9313 17.4387 12.5954C17.5024 13.1356 17.5619 13.6767 17.6137 14.2184C17.6606 14.7082 17.7016 15.1992 17.7247 15.6907C17.7281 15.7647 17.7311 15.8387 17.7337 15.9129C17.4751 15.3801 17.2376 14.8332 17.0021 14.2863C16.7423 13.6837 16.4869 13.0793 16.2271 12.4766C16.0729 12.1193 15.9166 11.7628 15.7583 11.4071C15.6634 11.6653 15.2661 12.7833 15.2661 12.7833C15.2661 12.7833 15.7814 13.9868 15.9997 14.4961C16.1997 14.9629 16.4013 15.429 16.613 15.8907C16.8083 16.3203 17.0067 16.7582 17.2673 17.152C17.408 17.3641 17.5869 17.593 17.8387 17.6747C18.0865 17.7508 18.3556 17.6652 18.5137 17.4598ZM13.9083 11.5614C13.6302 12.2938 13.3153 13.0481 12.9767 13.6379C12.4583 14.5407 12.1677 14.6379 12.0001 14.6379C11.6876 14.6379 11.3513 14.2824 10.972 13.6371C10.6204 13.0383 10.2939 12.2571 10.022 11.5415C9.91026 11.2477 9.80206 10.9497 9.69581 10.652C9.91417 10.1934 10.1345 9.75357 10.3544 9.34966C11.4153 7.39654 11.8411 7.29966 12.0005 7.29966C12.1599 7.29966 12.5864 7.39849 13.6466 9.34966C13.8544 9.73169 14.0626 10.1458 14.2693 10.577C14.2032 10.7622 13.9513 11.4465 13.9083 11.5602V11.5614Z" />
</svg>
