<svg xmlns="http://www.w3.org/2000/svg" viewBox="0 0 640 640">
    <path
        d="M147.6 101.6C135.5 108.8 128 121.9 128 136L128 504C128 518.1 135.5 531.2 147.6 538.4C159.7 545.6 174.8 545.9 187.2 539.1L523.2 355.1C536 348.1 544 334.6 544 320C544 305.4 536 291.9 523.2 284.9L187.2 100.9C174.8 94.1 159.8 94.4 147.6 101.6zM171.8 129L507.8 313C510.4 314.4 512 317.1 512 320C512 322.9 510.4 325.6 507.8 327L171.8 511C169.3 512.4 166.3 512.3 163.9 510.9C161.5 509.5 160 506.8 160 504L160 136C160 133.2 161.5 130.6 163.9 129.1C166.3 127.6 169.3 127.6 171.8 129z" />
</svg>
