<svg xmlns="http://www.w3.org/2000/svg" viewBox="0 0 640 640">
    <path
        d="M160.4 192C160.4 139 203.4 96 256.4 96C309.4 96 352.4 139 352.4 192C352.4 245 309.4 288 256.4 288C203.4 288 160.4 245 160.4 192zM384.4 192C384.4 121.3 327.1 64 256.4 64C185.7 64 128.4 121.3 128.4 192C128.4 262.7 185.7 320 256.4 320C327.1 320 384.4 262.7 384.4 192zM64.4 544C64.4 464.5 128.9 400 208.4 400L280.5 400C280.4 389.2 282.7 378.3 287.6 368L208.4 368C111.2 368 32.4 446.8 32.4 544L32.4 560C32.4 568.8 39.6 576 48.4 576C57.2 576 64.4 568.8 64.4 560L64.4 544zM456.6 319.6L504.6 319.6L504.6 330.2C504.6 346.8 513.9 360.6 526.5 367.9C539.2 375.3 555.9 376.4 570.2 368.1L579.4 362.8L603.4 404.4L594.1 409.8C579.8 418.1 572.4 433 572.4 447.6C572.4 462.2 579.8 477.2 594.1 485.4L603.4 490.8L579.4 532.4L570.2 527.1C555.9 518.8 539.2 519.9 526.5 527.3C513.9 534.6 504.6 548.4 504.6 565L504.6 575.6L456.6 575.6L456.6 565.2C456.6 548.5 447.2 534.6 434.5 527.3C421.8 520 405.1 518.8 390.7 527.1L381.7 532.3L357.7 490.7L366.6 485.6C381 477.3 388.4 462.2 388.4 447.5C388.4 432.8 381 417.7 366.6 409.4L357.7 404.3L381.7 362.7L390.7 367.9C405.1 376.2 421.8 375.1 434.5 367.7C447.2 360.4 456.6 346.5 456.6 329.8L456.6 319.4zM448.6 287.6C435.3 287.6 424.6 298.3 424.6 311.6L424.6 330C424.6 334.2 422.2 338 418.5 340.2C414.8 342.4 410.3 342.5 406.7 340.4L390.8 331.2C379.3 324.6 364.6 328.5 358 340L326 395.4C319.4 406.9 323.3 421.6 334.8 428.2L350.6 437.3C354.3 439.4 356.4 443.4 356.4 447.7C356.4 452 354.3 455.9 350.6 458.1L334.8 467.2C323.3 473.8 319.4 488.5 326 500L358 555.4C364.6 566.9 379.3 570.8 390.8 564.2L406.7 555C410.4 552.9 414.9 553 418.5 555.2C422.1 557.4 424.6 561.1 424.6 565.4L424.6 583.8C424.6 597.1 435.3 607.8 448.6 607.8L512.6 607.8C525.9 607.8 536.6 597.1 536.6 583.8L536.6 565.2C536.6 561 539 557.3 542.6 555.2C546.2 553.1 550.7 552.9 554.3 555L570.4 564.3C581.9 570.9 596.6 567 603.2 555.5L635.2 500.1C641.8 488.6 637.9 473.9 626.4 467.3L610.1 457.9C606.5 455.8 604.4 451.9 604.4 447.8C604.4 443.7 606.5 439.8 610.1 437.7L626.4 428.3C637.9 421.7 641.8 407 635.2 395.5L603.2 340.1C596.6 328.6 581.9 324.7 570.4 331.3L554.3 340.6C550.7 342.7 546.2 342.5 542.6 340.4C539 338.3 536.6 334.5 536.6 330.4L536.6 311.8C536.6 298.5 525.9 287.8 512.6 287.8L448.6 287.8zM536.4 447.8C536.4 416.9 511.3 391.8 480.4 391.8C449.5 391.8 424.4 416.9 424.4 447.8C424.4 478.7 449.5 503.8 480.4 503.8C511.3 503.8 536.4 478.7 536.4 447.8zM480.4 423.8C493.7 423.8 504.4 434.5 504.4 447.8C504.4 461.1 493.7 471.8 480.4 471.8C467.1 471.8 456.4 461.1 456.4 447.8C456.4 434.5 467.1 423.8 480.4 423.8z" />
</svg>
