<svg width="640" height="640" viewBox="0 0 640 640" fill="none" xmlns="http://www.w3.org/2000/svg">
    <path
        d="M166.6 393.4L284.7 511.4C285.1 511.8 285.6 512 286.1 512C287.2 512 288 511.1 288 510.1V130C288 128.9 287.1 128.1 286.1 128.1C285.6 128.1 285.1 128.3 284.7 128.7L166.6 246.6C160.6 252.6 152.5 256 144 256H80C71.2 256 64 263.2 64 272V368C64 376.8 71.2 384 80 384H144C152.5 384 160.6 387.4 166.6 393.4ZM80 224H144L262.1 105.9C268.5 99.5 277.1 96 286.1 96C304.8 96 320 111.2 320 129.9V510C320 528.7 304.8 543.9 286.1 543.9C277.1 543.9 268.5 540.3 262.1 534L144 416H80C53.5 416 32 394.5 32 368V272C32 245.5 53.5 224 80 224Z" />
    <path
        d="M422.4 268.8C415.3 263.5 413.9 253.5 419.2 246.4C424.5 239.3 434.5 237.9 441.6 243.2C464.9 260.7 480 288.6 480 320C480 351.4 464.9 379.3 441.6 396.8C434.5 402.1 424.5 400.7 419.2 393.6C413.9 386.5 415.3 376.5 422.4 371.2C438 359.5 448 340.9 448 320C448 299.1 438 280.5 422.4 268.8Z" />
    <path
        d="M483.7 174C489.3 167.2 499.4 166.3 506.2 171.9C548.8 207.1 576 260.4 576 320C576 379.6 548.8 432.9 506.2 468.1C499.4 473.7 489.4 472.7 483.7 465.9C478 459.1 479 449 485.8 443.4C521.4 414.1 544 369.7 544 320C544 270.3 521.4 225.9 485.8 196.5C479 190.9 478.1 180.8 483.7 174Z" />
</svg>
