<svg xmlns="http://www.w3.org/2000/svg" viewBox="0 0 640 640">
    <path
        d="M176 384L112 384C103.2 384 96 376.8 96 368L96 272C96 263.2 103.2 256 112 256L176 256C184.5 256 192.6 252.6 198.6 246.6L316.7 128.6C317.1 128.2 317.6 128 318.1 128C319.2 128 320 128.9 320 129.9L320 510C320 511.1 319.1 511.9 318.1 511.9C317.6 511.9 317.1 511.7 316.7 511.3L198.6 393.4C192.6 387.4 184.5 384 176 384zM176 224L112 224C85.5 224 64 245.5 64 272L64 368C64 394.5 85.5 416 112 416L176 416L294.1 534.1C300.5 540.5 309.1 544 318.1 544C336.8 544 352 528.8 352 510.1L352 130C352 111.3 336.8 96.1 318.1 96.1C309.1 96.1 300.5 99.7 294.1 106L176 224zM419.2 246.4C413.9 253.5 415.3 263.5 422.4 268.8C438 280.5 448 299.1 448 320C448 340.9 438 359.5 422.4 371.2C415.3 376.5 413.9 386.5 419.2 393.6C424.5 400.7 434.5 402.1 441.6 396.8C464.9 379.3 480 351.4 480 320C480 288.6 464.9 260.7 441.6 243.2C434.5 237.9 424.5 239.3 419.2 246.4zM506.2 171.9C499.4 166.3 489.3 167.2 483.7 174C478.1 180.8 479 190.9 485.8 196.5C521.4 225.9 544 270.3 544 320C544 369.7 521.4 414.1 485.8 443.4C479 449 478 459.1 483.7 465.9C489.4 472.7 499.4 473.7 506.2 468.1C548.8 432.9 576 379.6 576 320C576 260.4 548.8 207.1 506.2 171.9z" />
</svg>
