<svg xmlns="http://www.w3.org/2000/svg" viewBox="0 0 640 640">
    <path
        d="M166.6 393.4L284.7 511.4C285.1 511.8 285.6 512 286.1 512C287.2 512 288 511.1 288 510.1L288 130C288 128.9 287.1 128.1 286.1 128.1C285.6 128.1 285.1 128.3 284.7 128.7L166.6 246.6C160.6 252.6 152.5 256 144 256L80 256C71.2 256 64 263.2 64 272L64 368C64 376.8 71.2 384 80 384L144 384C152.5 384 160.6 387.4 166.6 393.4zM80 224L144 224L262.1 105.9C268.5 99.5 277.1 96 286.1 96C304.8 96 320 111.2 320 129.9L320 510C320 528.7 304.8 543.9 286.1 543.9C277.1 543.9 268.5 540.3 262.1 534L144 416L80 416C53.5 416 32 394.5 32 368L32 272C32 245.5 53.5 224 80 224zM404.7 244.7C410.9 238.5 421.1 238.5 427.3 244.7L480 297.4L532.7 244.7C538.9 238.5 549.1 238.5 555.3 244.7C561.5 250.9 561.5 261.1 555.3 267.3L502.6 320L555.3 372.7C561.5 378.9 561.5 389.1 555.3 395.3C549.1 401.5 538.9 401.5 532.7 395.3L480 342.6L427.3 395.3C421.1 401.5 410.9 401.5 404.7 395.3C398.5 389.1 398.5 378.9 404.7 372.7L457.4 320L404.7 267.3C398.5 261.1 398.5 250.9 404.7 244.7z" />
</svg>
