<svg width="24" height="24" viewBox="0 0 24 24" xmlns="http://www.w3.org/2000/svg">
    <path class="brand-bg"
        d="M22.5401 6.70981C22.4144 6.2438 22.1687 5.81891 21.8273 5.47763C21.4861 5.13634 21.0612 4.8906 20.5952 4.76495C18.8786 4.30499 11.9991 4.30499 11.9991 4.30499C11.9991 4.30499 5.11787 4.30499 3.4048 4.76495C2.93864 4.89026 2.51358 5.1359 2.17224 5.47723C1.83091 5.81857 1.58527 6.24363 1.45996 6.70981C1 8.42468 1 12.0047 1 12.0047C1 12.0047 1 15.5848 1.45996 17.2996C1.58638 17.7645 1.8325 18.188 2.17377 18.528C2.51503 18.868 2.9395 19.1126 3.4048 19.2373C5.11969 19.6972 11.9991 19.6972 11.9991 19.6972C11.9991 19.6972 18.8803 19.6972 20.5952 19.2373C21.0612 19.1116 21.4861 18.8658 21.8273 18.5245C22.1687 18.1833 22.4144 17.7584 22.5401 17.2923C23 15.5775 23 11.9975 23 11.9975C23 11.9975 23 8.42468 22.5401 6.70981Z" />
    <path class="brand-fg" d="M9.79913 15.3041L15.516 12.0047L9.79913 8.70537V15.3041Z" />
</svg>
