<svg width="112" height="112" viewBox="0 0 112 112" fill="none" xmlns="http://www.w3.org/2000/svg">
    <style>
        @media (prefers-color-scheme: dark) {
            .icon {
                fill: #FF783F
            }
        }
    </style>
    <path class="icon" fill="#DD5316"
        d="M32 84V104H80V8H32V84ZM24 88H8V96C8 100.425 11.575 104 16 104H24V88ZM24 80V60H8V80H24ZM24 52V32H8V52H24ZM24 24V8H16C11.575 8 8 11.575 8 16V24H24ZM88 80H104V60H88V80ZM88 52H104V32H88V52ZM88 24H104V16C104 11.575 100.425 8 96 8H88V24ZM88 88V104H96C100.425 104 104 100.425 104 96V88H88ZM16 0H96C104.825 0 112 7.175 112 16V96C112 104.825 104.825 112 96 112H16C7.175 112 0 104.825 0 96V16C0 7.175 7.175 0 16 0Z" />
</svg>
