<svg width="112" height="112" viewBox="0 0 24 24" fill="none" xmlns="http://www.w3.org/2000/svg">
    <style>
        @media (prefers-color-scheme: dark) {
            .icon {
                fill: #FF5A4D
            }
        }
    </style>
    <path class="icon" fill="#EB2E29" fill-rule="evenodd" clip-rule="evenodd"
        d="M1.5 5.625C1.5 4.589 2.34 3.75 3.375 3.75H20.625C21.66 3.75 22.5 4.59 22.5 5.625V18.375C22.5 19.41 21.66 20.25 20.625 20.25H3.375C2.87772 20.25 2.40081 20.0525 2.04917 19.7008C1.69754 19.3492 1.5 18.8723 1.5 18.375V5.625ZM3 5.625V7.125C3 7.332 3.168 7.5 3.375 7.5H4.875C4.97446 7.5 5.06984 7.46049 5.14016 7.39016C5.21049 7.31984 5.25 7.22446 5.25 7.125V5.625C5.25 5.52554 5.21049 5.43016 5.14016 5.35984C5.06984 5.28951 4.97446 5.25 4.875 5.25H3.375C3.27554 5.25 3.18016 5.28951 3.10983 5.35984C3.03951 5.43016 3 5.52554 3 5.625ZM19.125 5.25C19.0255 5.25 18.9302 5.28951 18.8598 5.35984C18.7895 5.43016 18.75 5.52554 18.75 5.625V7.125C18.75 7.332 18.918 7.5 19.125 7.5H20.625C20.7245 7.5 20.8198 7.46049 20.8902 7.39016C20.9605 7.31984 21 7.22446 21 7.125V5.625C21 5.52554 20.9605 5.43016 20.8902 5.35984C20.8198 5.28951 20.7245 5.25 20.625 5.25H19.125ZM21 9.375C21 9.27554 20.9605 9.18016 20.8902 9.10983C20.8198 9.03951 20.7245 9 20.625 9H19.125C19.0255 9 18.9302 9.03951 18.8598 9.10983C18.7895 9.18016 18.75 9.27554 18.75 9.375V10.875C18.75 11.082 18.918 11.25 19.125 11.25H20.625C20.7245 11.25 20.8198 11.2105 20.8902 11.1402C20.9605 11.0698 21 10.9745 21 10.875V9.375ZM21 13.125C21 13.0255 20.9605 12.9302 20.8902 12.8598C20.8198 12.7895 20.7245 12.75 20.625 12.75H19.125C19.0255 12.75 18.9302 12.7895 18.8598 12.8598C18.7895 12.9302 18.75 13.0255 18.75 13.125V14.625C18.75 14.832 18.918 15 19.125 15H20.625C20.7245 15 20.8198 14.9605 20.8902 14.8902C20.9605 14.8198 21 14.7245 21 14.625V13.125ZM21 16.875C21 16.7755 20.9605 16.6802 20.8902 16.6098C20.8198 16.5395 20.7245 16.5 20.625 16.5H19.125C19.0255 16.5 18.9302 16.5395 18.8598 16.6098C18.7895 16.6802 18.75 16.7755 18.75 16.875V18.375C18.75 18.582 18.918 18.75 19.125 18.75H20.625C20.7245 18.75 20.8198 18.7105 20.8902 18.6402C20.9605 18.5698 21 18.4745 21 18.375V16.875ZM4.875 18.75C4.97446 18.75 5.06984 18.7105 5.14016 18.6402C5.21049 18.5698 5.25 18.4745 5.25 18.375V16.875C5.25 16.7755 5.21049 16.6802 5.14016 16.6098C5.06984 16.5395 4.97446 16.5 4.875 16.5H3.375C3.27554 16.5 3.18016 16.5395 3.10983 16.6098C3.03951 16.6802 3 16.7755 3 16.875V18.375C3 18.582 3.168 18.75 3.375 18.75H4.875ZM3.375 15H4.875C4.97446 15 5.06984 14.9605 5.14016 14.8902C5.21049 14.8198 5.25 14.7245 5.25 14.625V13.125C5.25 13.0255 5.21049 12.9302 5.14016 12.8598C5.06984 12.7895 4.97446 12.75 4.875 12.75H3.375C3.27554 12.75 3.18016 12.7895 3.10983 12.8598C3.03951 12.9302 3 13.0255 3 13.125V14.625C3 14.832 3.168 15 3.375 15ZM3.375 11.25H4.875C4.97446 11.25 5.06984 11.2105 5.14016 11.1402C5.21049 11.0698 5.25 10.9745 5.25 10.875V9.375C5.25 9.27554 5.21049 9.18016 5.14016 9.10983C5.06984 9.03951 4.97446 9 4.875 9H3.375C3.27554 9 3.18016 9.03951 3.10983 9.10983C3.03951 9.18016 3 9.27554 3 9.375V10.875C3 11.082 3.168 11.25 3.375 11.25ZM7.5 11.25C7.30109 11.25 7.11032 11.329 6.96967 11.4697C6.82902 11.6103 6.75 11.8011 6.75 12C6.75 12.1989 6.82902 12.3897 6.96967 12.5303C7.11032 12.671 7.30109 12.75 7.5 12.75H16.5C16.6989 12.75 16.8897 12.671 17.0303 12.5303C17.171 12.3897 17.25 12.1989 17.25 12C17.25 11.8011 17.171 11.6103 17.0303 11.4697C16.8897 11.329 16.6989 11.25 16.5 11.25H7.5Z" />
</svg>
